<svg width="200" height="32" viewBox="0 0 200 32" fill="none" xmlns="http://www.w3.org/2000/svg">
<path fill-rule="evenodd" clip-rule="evenodd" d="M30.8032 16.5081C30.8087 16.3394 30.8115 16.17 30.8115 16C30.8115 15.83 30.8087 15.6607 30.8032 15.4921H28.6101C28.4231 15.4921 28.2714 15.3405 28.2714 15.1535C28.2714 14.9664 28.4231 14.8148 28.6101 14.8148H30.7661C30.7398 14.4729 30.7022 14.1341 30.6537 13.7988H28.6101C28.4231 13.7988 28.2715 13.6472 28.2715 13.4601C28.2715 13.2731 28.4231 13.1215 28.6101 13.1215H30.5401C29.1942 6.08109 23.0044 0.760254 15.5718 0.760254C8.13917 0.760254 1.94932 6.08109 0.603491 13.1215H2.53321C2.72025 13.1215 2.87188 13.2731 2.87188 13.4601C2.87188 13.6472 2.72025 13.7988 2.53321 13.7988H0.489828C0.441326 14.1341 0.403738 14.4729 0.377436 14.8148H2.53321C2.72025 14.8148 2.87187 14.9664 2.87187 15.1535C2.87187 15.3405 2.72025 15.4921 2.53321 15.4921H0.340334C0.334813 15.6607 0.332031 15.83 0.332031 16C0.332031 16.17 0.334816 16.3394 0.340342 16.5081H2.53321C2.72025 16.5081 2.87187 16.6597 2.87187 16.8468C2.87187 17.0338 2.72025 17.1854 2.53321 17.1854H0.377455C0.403762 17.5274 0.441355 17.8662 0.489862 18.2014H2.53321C2.72025 18.2014 2.87187 18.353 2.87187 18.5401C2.87187 18.7271 2.72025 18.8787 2.53321 18.8787H0.603535C1.94945 25.919 8.13925 31.2397 15.5718 31.2397C23.0043 31.2397 29.1941 25.919 30.54 18.8787H28.6101C28.4231 18.8787 28.2714 18.7271 28.2714 18.5401C28.2714 18.353 28.4231 18.2014 28.6101 18.2014H30.6537C30.7022 17.8662 30.7398 17.5274 30.7661 17.1854H28.6101C28.4231 17.1854 28.2714 17.0338 28.2714 16.8468C28.2714 16.6597 28.4231 16.5081 28.6101 16.5081H30.8032ZM20.2838 15.4524C20.3215 15.2749 20.5743 15.2731 20.6145 15.4501L22.3278 22.9802C22.3454 23.0573 22.4139 23.112 22.4929 23.112H24.096C24.1755 23.112 24.2443 23.0567 24.2614 22.9791L26.7233 11.8033C26.7466 11.6976 26.6662 11.5975 26.558 11.5975H24.8466C24.7635 11.5975 24.6926 11.6579 24.6794 11.74L23.4183 19.6014C23.3887 19.7862 23.1254 19.7934 23.0857 19.6105L21.3735 11.7309C21.3566 11.653 21.2877 11.5975 21.208 11.5975H19.7923C19.7126 11.5975 19.6436 11.6531 19.6268 11.731L17.9074 19.665C17.8835 19.7753 17.756 19.8269 17.662 19.7643C17.6248 19.7395 17.5997 19.7002 17.5927 19.6561L16.3404 11.7404C16.3273 11.6581 16.2564 11.5975 16.1731 11.5975H14.4488C14.3406 11.5975 14.2602 11.6975 14.2834 11.8032L16.7389 22.979C16.756 23.0567 16.8248 23.112 16.9043 23.112H18.5185C18.5985 23.112 18.6675 23.0561 18.6841 22.9779L20.2838 15.4524ZM24.2159 8.33784H24.0949C24.0493 8.33792 24.0086 8.30951 23.9929 8.26673C23.9795 8.23151 23.9651 8.19706 23.9496 8.16294C23.9303 8.12144 23.9391 8.07231 23.9716 8.0401L24.0579 7.9537C24.186 7.82447 24.1857 7.61605 24.0573 7.48712L23.7463 7.17607C23.6172 7.04773 23.4087 7.04773 23.2796 7.17607L23.1933 7.26225C23.161 7.29463 23.112 7.30342 23.0705 7.28427C23.0363 7.26875 23.0019 7.25433 22.9666 7.24024C22.9236 7.22471 22.895 7.18382 22.8951 7.1381V7.01702C22.8951 6.83466 22.7473 6.68682 22.5649 6.68682H22.1247C21.9423 6.68682 21.7944 6.83466 21.7944 7.01702V7.1381C21.7945 7.18364 21.7661 7.22438 21.7233 7.24002C21.6881 7.25345 21.6537 7.26787 21.6196 7.28339C21.578 7.30258 21.529 7.29379 21.4967 7.26137L21.4103 7.17508C21.2812 7.04682 21.0728 7.04682 20.9437 7.17508L20.6327 7.48712C20.5043 7.61622 20.5043 7.82471 20.6327 7.95381L20.7189 8.0401C20.7514 8.07231 20.7602 8.12144 20.7409 8.16294C20.7254 8.19706 20.7109 8.23151 20.6974 8.26684C20.6817 8.30986 20.6405 8.3383 20.5947 8.33784H20.4736C20.2913 8.33784 20.1434 8.48567 20.1434 8.66804V9.10831C20.1434 9.29068 20.2913 9.43851 20.4736 9.43851H20.5947C20.6403 9.43843 20.681 9.46684 20.6966 9.50961C20.7101 9.54484 20.7245 9.57929 20.74 9.61341C20.7593 9.6549 20.7505 9.70404 20.718 9.73624L20.6317 9.82265C20.5034 9.95173 20.5034 10.1601 20.6317 10.2892L20.9427 10.6003C21.0718 10.7286 21.2803 10.7286 21.4094 10.6003L21.4957 10.5141C21.528 10.4817 21.5771 10.4729 21.6186 10.4921C21.6527 10.5076 21.6871 10.522 21.7225 10.5361C21.7657 10.5515 21.7945 10.5924 21.7944 10.6382V10.7593C21.7944 10.9417 21.9423 11.0895 22.1247 11.0895H22.5649C22.7473 11.0895 22.8951 10.9417 22.8951 10.7593V10.6382C22.895 10.5927 22.9235 10.552 22.9662 10.5363C23.0014 10.5229 23.0359 10.5085 23.07 10.493C23.1115 10.4738 23.1606 10.4826 23.1929 10.515L23.2793 10.6013C23.4085 10.7293 23.6169 10.7291 23.7458 10.6007L24.0569 10.2897C24.1852 10.1606 24.1852 9.95207 24.0569 9.82298L23.9707 9.73668C23.9382 9.70448 23.9294 9.65534 23.9487 9.61385C23.9642 9.57973 23.9786 9.54528 23.9927 9.50994C24.0083 9.46695 24.0491 9.43835 24.0949 9.43851H24.2159C24.3983 9.43851 24.5461 9.29068 24.5461 9.10831V8.66804C24.5461 8.48567 24.3983 8.33784 24.2159 8.33784ZM24.326 9.10831C24.326 9.16909 24.2767 9.21838 24.2159 9.21838H24.0949C23.958 9.21889 23.8356 9.30346 23.7867 9.43125C23.775 9.46207 23.7624 9.4924 23.7488 9.52227C23.6922 9.6472 23.7185 9.79408 23.8148 9.89166L23.9009 9.97784C23.9439 10.0208 23.944 10.0905 23.901 10.1335L23.9009 10.1336L23.5899 10.4446C23.5469 10.4876 23.4772 10.4876 23.4342 10.4446L23.3479 10.3585C23.2504 10.262 23.1035 10.2357 22.9786 10.2924C22.9487 10.306 22.9183 10.3186 22.8878 10.3303C22.7601 10.3792 22.6755 10.5015 22.675 10.6382V10.7593C22.675 10.8201 22.6257 10.8694 22.5649 10.8694H22.1247C22.0639 10.8694 22.0146 10.8201 22.0146 10.7593V10.6382C22.0141 10.5014 21.9295 10.379 21.8017 10.3301C21.7709 10.3184 21.7406 10.3058 21.7107 10.2922C21.5858 10.2356 21.4389 10.2619 21.3413 10.3582L21.2551 10.4443C21.2122 10.4873 21.1425 10.4874 21.0995 10.4444L21.0994 10.4443L20.7883 10.1336C20.7454 10.0906 20.7454 10.0209 20.7883 9.97795L20.8745 9.89166C20.9709 9.79408 20.9971 9.6472 20.9405 9.52227C20.927 9.49244 20.9143 9.46207 20.9027 9.43147C20.8539 9.30364 20.7315 9.21898 20.5947 9.21838H20.4736C20.4129 9.21838 20.3636 9.16909 20.3636 9.10831V8.66804C20.3636 8.60725 20.4129 8.55797 20.4736 8.55797H20.5947C20.7315 8.55746 20.854 8.47289 20.9029 8.3451C20.9146 8.31428 20.9272 8.28394 20.9408 8.25407C20.9974 8.12915 20.9711 7.98226 20.8747 7.88469L20.7882 7.7985C20.7452 7.75555 20.7452 7.68585 20.7881 7.64284L20.7882 7.64276L21.0993 7.33171C21.1422 7.28874 21.2119 7.28874 21.2549 7.33171L21.3412 7.41789C21.4387 7.51435 21.5857 7.54062 21.7106 7.48393C21.7404 7.47039 21.7708 7.45774 21.8014 7.44607C21.9293 7.39732 22.014 7.27494 22.0146 7.1381V7.01702C22.0146 6.95624 22.0639 6.90696 22.1247 6.90696H22.5649C22.6257 6.90696 22.675 6.95624 22.675 7.01702V7.1381C22.6755 7.27493 22.7601 7.39738 22.8879 7.44629C22.9187 7.45795 22.949 7.47057 22.9789 7.48415C23.1038 7.54084 23.2507 7.51457 23.3483 7.41811L23.4345 7.33204C23.4776 7.28936 23.5471 7.28936 23.5902 7.33204L23.9013 7.64309C23.9442 7.68607 23.9442 7.75574 23.9013 7.79872L23.8151 7.88502C23.7187 7.98259 23.6924 8.12948 23.749 8.2544C23.7626 8.28423 23.7752 8.31461 23.7869 8.34521C23.8358 8.4729 23.9581 8.55742 24.0949 8.55797H24.2159C24.2767 8.55797 24.326 8.60725 24.326 8.66804V9.10831ZM23.327 8.76518C23.3302 8.79138 23.3321 8.81768 23.3332 8.8441L23.3341 8.85958C23.3347 8.86919 23.3353 8.87878 23.3353 8.8889C23.3353 8.89517 23.3344 8.90111 23.3344 8.90739C23.3339 8.9272 23.3328 8.94701 23.3313 8.96694C23.3297 8.98862 23.3269 9.00986 23.3238 9.0311C23.3004 9.19173 23.244 9.34576 23.1581 9.48348C23.1417 9.51009 23.1219 9.53439 23.0991 9.55569C23.0146 9.63591 22.9197 9.70443 22.817 9.75942H22.8163C22.7988 9.76898 22.7811 9.7771 22.7632 9.78527L22.7613 9.78617L22.7502 9.7914C22.74 9.7963 22.7299 9.80116 22.7183 9.80554C22.7027 9.81148 22.6871 9.81721 22.672 9.82249L22.6658 9.82467C22.6528 9.82924 22.6398 9.8338 22.6265 9.83779C22.6067 9.84362 22.5875 9.84836 22.5681 9.85287L22.5578 9.85531C22.5508 9.85702 22.5437 9.85873 22.5363 9.86013C22.5087 9.86564 22.4816 9.8696 22.4548 9.87257L22.4504 9.87324C22.4481 9.87363 22.446 9.874 22.4438 9.874C22.4106 9.8773 22.378 9.8794 22.3466 9.8794C22.3358 9.8794 22.3257 9.87847 22.3156 9.87754C22.309 9.87693 22.3025 9.87633 22.2957 9.87598L22.282 9.87537C22.2608 9.87446 22.2397 9.87355 22.2186 9.87092C22.1798 9.86575 22.1413 9.85839 22.1033 9.84891C22.1014 9.84847 22.0995 9.84792 22.0978 9.84792C21.7485 9.75795 21.4756 9.48531 21.3854 9.13607C21.2484 8.60608 21.567 8.0654 22.097 7.92845C22.1322 7.9199 22.1678 7.91324 22.2037 7.90852C22.2161 7.90676 22.2286 7.90533 22.2411 7.90401C22.2648 7.90159 22.2883 7.90027 22.3118 7.89961L22.3181 7.89924L22.3257 7.89862C22.3321 7.89807 22.3384 7.89752 22.3448 7.89752C22.5576 7.89741 22.7646 7.96631 22.935 8.09388L22.953 8.10731C22.9669 8.11816 22.9805 8.12939 22.9938 8.14099C23.0048 8.15067 23.0159 8.1608 23.0269 8.17104C23.0359 8.17962 23.0449 8.18799 23.0535 8.1969C23.0699 8.21352 23.0855 8.23091 23.1007 8.24885L23.1067 8.25558L23.1108 8.26041C23.1481 8.30544 23.1813 8.35375 23.2099 8.40471L23.2118 8.40862L23.2136 8.41252C23.2318 8.44589 23.248 8.4803 23.2622 8.51555C23.2679 8.53063 23.2735 8.54582 23.2789 8.56112C23.2866 8.58313 23.2936 8.60547 23.2997 8.62815L23.3021 8.63697C23.3062 8.65183 23.3103 8.66666 23.3135 8.68164C23.3193 8.70905 23.3235 8.737 23.327 8.76518ZM23.1129 8.93763C23.1133 8.93052 23.1138 8.92336 23.1138 8.91619C23.1148 8.89066 23.1144 8.86523 23.1128 8.83992L23.1123 8.82889L23.1119 8.8206L23.1116 8.8157C23.1087 8.78541 23.1041 8.7553 23.0976 8.72556C23.0953 8.71488 23.0922 8.70508 23.0895 8.69408C23.0841 8.67338 23.0779 8.65291 23.0708 8.63266C23.0668 8.62165 23.0631 8.61065 23.0587 8.59964C23.0476 8.57203 23.035 8.54509 23.0208 8.51896L23.0042 8.49155C22.9943 8.47482 22.9833 8.45831 22.9723 8.44246C22.9646 8.43179 22.9567 8.42122 22.9486 8.41098C22.9368 8.39612 22.9245 8.38204 22.9118 8.36828L22.9033 8.35871C22.8987 8.3535 22.8941 8.3483 22.8893 8.3434C22.8696 8.32399 22.8489 8.30562 22.8273 8.28837C22.8187 8.28143 22.8097 8.27505 22.8008 8.26856C22.7842 8.25601 22.7673 8.245 22.7499 8.23399C22.7416 8.22882 22.7333 8.22365 22.7248 8.2187C22.6719 8.18865 22.6155 8.16493 22.557 8.14803L22.543 8.14439L22.5343 8.1422C22.5111 8.13625 22.4875 8.13152 22.4638 8.12778L22.4546 8.12635L22.4451 8.12486L22.4389 8.12404C22.4077 8.11996 22.3762 8.11783 22.3448 8.11765C22.2796 8.11778 22.2146 8.12592 22.1514 8.14187V8.14198C21.8791 8.21197 21.6665 8.42476 21.5968 8.69715C21.4913 9.10938 21.7399 9.52909 22.1522 9.63461C22.1818 9.64194 22.2118 9.64759 22.2421 9.65156L22.2553 9.6531C22.2812 9.65603 22.3072 9.65764 22.3332 9.65794H22.3562C22.3744 9.65761 22.3922 9.65673 22.4099 9.65519C22.4234 9.65398 22.4369 9.65233 22.4507 9.65034L22.4611 9.64873L22.4654 9.64803C22.5347 9.63674 22.6022 9.61631 22.6662 9.58728L22.6753 9.58287C22.6887 9.57671 22.7022 9.57 22.7158 9.56284C22.9194 9.45048 23.0614 9.25235 23.1026 9.02351C23.1071 8.99676 23.1105 8.97013 23.1125 8.94349L23.1129 8.93763ZM22.853 8.88804C22.853 9.16859 22.6256 9.39603 22.345 9.39603C22.0644 9.39603 21.837 9.16859 21.837 8.88804C21.837 8.60748 22.0644 8.38004 22.345 8.38004C22.6256 8.38004 22.853 8.60748 22.853 8.88804ZM26.0711 6.79686H26.4173C26.5997 6.79686 26.7475 6.9447 26.7475 7.12706V7.78747C26.7475 7.96984 26.5997 8.11767 26.4173 8.11767H26.0711C26.0249 8.11726 25.9835 8.14654 25.9686 8.19032C25.9342 8.29262 25.8927 8.39237 25.8443 8.48882C25.824 8.53047 25.8325 8.58045 25.8655 8.61298L26.1107 8.85854C26.2396 8.98748 26.2396 9.1965 26.1107 9.32544L25.6435 9.79246C25.5146 9.9213 25.3057 9.9213 25.1767 9.79246L24.8152 9.43155L24.8125 9.42885C24.7702 9.3852 24.7713 9.31551 24.8149 9.27322C24.8586 9.23092 24.9283 9.23202 24.9706 9.27569L25.3323 9.63661C25.3752 9.6795 25.4448 9.6795 25.4878 9.63661L25.9551 9.16948C25.9981 9.1265 25.9981 9.05682 25.9551 9.01384L25.7097 8.76795C25.6098 8.66844 25.5847 8.51614 25.6475 8.38987C25.6912 8.30265 25.7287 8.21247 25.7598 8.11998C25.8049 7.98657 25.9303 7.89697 26.0711 7.89754H26.4173C26.4781 7.89754 26.5274 7.84825 26.5274 7.78747V7.12706C26.5274 7.06628 26.4781 7.017 26.4173 7.017H26.0711C25.9303 7.0176 25.8048 6.92801 25.7597 6.79455C25.7286 6.70211 25.6912 6.61196 25.6475 6.52477C25.5846 6.3985 25.6096 6.24612 25.7096 6.14658L25.955 5.90069C25.9979 5.85772 25.9979 5.78813 25.955 5.74517L25.4879 5.27793C25.4449 5.23496 25.3752 5.23496 25.3323 5.27793L25.0864 5.52327C24.9868 5.6231 24.8346 5.64814 24.7083 5.58546C24.6211 5.54173 24.5309 5.50423 24.4384 5.47319C24.305 5.42806 24.2154 5.30265 24.216 5.16181V4.81564C24.216 4.75486 24.1667 4.70558 24.1059 4.70558H23.4455C23.3847 4.70558 23.3354 4.75486 23.3354 4.81564V5.16181C23.336 5.30268 23.2464 5.42813 23.113 5.4733C23.0205 5.50432 22.9304 5.5418 22.8432 5.58546C22.7169 5.64847 22.5645 5.62346 22.465 5.52338L22.2191 5.27793C22.1761 5.23496 22.1065 5.23496 22.0635 5.27793L21.5964 5.74506C21.5534 5.78804 21.5534 5.85771 21.5964 5.90069L21.9575 6.26215C21.9986 6.30486 21.9985 6.3725 21.9573 6.41509C21.915 6.45876 21.8453 6.45986 21.8016 6.41757L21.4407 6.056C21.3118 5.92705 21.3118 5.71803 21.4407 5.58909L21.9078 5.12196C22.0369 4.9935 22.2456 4.9935 22.3746 5.12196L22.6204 5.36741C22.6529 5.40054 22.703 5.40906 22.7447 5.38855C22.8411 5.3402 22.9408 5.2987 23.0431 5.26439C23.0867 5.24926 23.1158 5.20797 23.1153 5.16181V4.81564C23.1153 4.63328 23.2631 4.48544 23.4455 4.48544H24.1059C24.2883 4.48544 24.4361 4.63328 24.4361 4.81564V5.16181C24.4357 5.20808 24.465 5.24941 24.5087 5.26439C24.611 5.29872 24.7108 5.34024 24.8072 5.38866C24.8489 5.40902 24.8989 5.40046 24.9314 5.36741L25.1767 5.12218C25.3057 4.99335 25.5146 4.99335 25.6435 5.12218L26.1115 5.58942C26.2404 5.71835 26.2404 5.92729 26.1115 6.05622L25.8661 6.302C25.833 6.33455 25.8245 6.38462 25.845 6.42626C25.8931 6.5227 25.9344 6.62242 25.9686 6.72466C25.9837 6.76826 26.025 6.79733 26.0711 6.79686ZM24.7874 6.44557C24.2283 5.88762 23.323 5.88762 22.7639 6.44557C22.7217 6.48929 22.7229 6.55898 22.7666 6.60121C22.8093 6.6424 22.8769 6.6424 22.9195 6.60121C23.3892 6.12522 24.1558 6.12009 24.6317 6.58973C25.1077 7.05938 25.1129 7.82596 24.6432 8.30194L24.6317 8.31342C24.588 8.35566 24.5868 8.42533 24.629 8.46905C24.6713 8.51278 24.741 8.51399 24.7847 8.47175L24.7874 8.46905C25.3453 7.90994 25.3453 7.00469 24.7874 6.44557ZM4.74769 19.8328C4.55558 19.8328 4.40046 19.9931 4.4236 20.1838C4.66843 22.2008 6.34425 23.4507 8.85609 23.4507C11.6495 23.4507 13.3704 21.9804 13.3704 19.5767C13.3704 17.7265 12.4058 16.6939 10.1679 16.1901L8.82523 15.8845C7.52111 15.5871 6.98865 15.1658 6.98865 14.4307C6.98865 13.5221 7.76032 12.9439 8.92554 12.9439C9.92962 12.9439 10.6885 13.4425 10.9182 14.2175C10.9671 14.3825 11.1081 14.5133 11.2802 14.5133H12.8198C13.0112 14.5133 13.1661 14.3542 13.1427 14.1643C12.9043 12.231 11.2271 10.9202 8.91011 10.9202C6.34045 10.9202 4.65049 12.3987 4.65049 14.6455C4.65049 16.4627 5.64595 17.5943 7.67544 18.0486L9.12618 18.379C10.492 18.6929 11.0476 19.1307 11.0476 19.8906C11.0476 20.7909 10.1911 21.4187 8.97956 21.4187C7.80728 21.4187 6.95544 20.924 6.71036 20.1291C6.65955 19.9643 6.51868 19.8328 6.34621 19.8328H4.74769Z" fill="#3173F3"/>
<path fill-rule="evenodd" clip-rule="evenodd" d="M30.8032 16.5081C30.8087 16.3394 30.8115 16.17 30.8115 16C30.8115 15.83 30.8087 15.6607 30.8032 15.4921H28.6101C28.4231 15.4921 28.2714 15.3405 28.2714 15.1535C28.2714 14.9664 28.4231 14.8148 28.6101 14.8148H30.7661C30.7398 14.4729 30.7022 14.1341 30.6537 13.7988H28.6101C28.4231 13.7988 28.2715 13.6472 28.2715 13.4601C28.2715 13.2731 28.4231 13.1215 28.6101 13.1215H30.5401C29.1942 6.08109 23.0044 0.760254 15.5718 0.760254C8.13917 0.760254 1.94932 6.08109 0.603491 13.1215H2.53321C2.72025 13.1215 2.87188 13.2731 2.87188 13.4601C2.87188 13.6472 2.72025 13.7988 2.53321 13.7988H0.489828C0.441326 14.1341 0.403738 14.4729 0.377436 14.8148H2.53321C2.72025 14.8148 2.87187 14.9664 2.87187 15.1535C2.87187 15.3405 2.72025 15.4921 2.53321 15.4921H0.340334C0.334813 15.6607 0.332031 15.83 0.332031 16C0.332031 16.17 0.334816 16.3394 0.340342 16.5081H2.53321C2.72025 16.5081 2.87187 16.6597 2.87187 16.8468C2.87187 17.0338 2.72025 17.1854 2.53321 17.1854H0.377455C0.403762 17.5274 0.441355 17.8662 0.489862 18.2014H2.53321C2.72025 18.2014 2.87187 18.353 2.87187 18.5401C2.87187 18.7271 2.72025 18.8787 2.53321 18.8787H0.603535C1.94945 25.919 8.13925 31.2397 15.5718 31.2397C23.0043 31.2397 29.1941 25.919 30.54 18.8787H28.6101C28.4231 18.8787 28.2714 18.7271 28.2714 18.5401C28.2714 18.353 28.4231 18.2014 28.6101 18.2014H30.6537C30.7022 17.8662 30.7398 17.5274 30.7661 17.1854H28.6101C28.4231 17.1854 28.2714 17.0338 28.2714 16.8468C28.2714 16.6597 28.4231 16.5081 28.6101 16.5081H30.8032ZM20.2838 15.4524C20.3215 15.2749 20.5743 15.2731 20.6145 15.4501L22.3278 22.9802C22.3454 23.0573 22.4139 23.112 22.4929 23.112H24.096C24.1755 23.112 24.2443 23.0567 24.2614 22.9791L26.7233 11.8033C26.7466 11.6976 26.6662 11.5975 26.558 11.5975H24.8466C24.7635 11.5975 24.6926 11.6579 24.6794 11.74L23.4183 19.6014C23.3887 19.7862 23.1254 19.7934 23.0857 19.6105L21.3735 11.7309C21.3566 11.653 21.2877 11.5975 21.208 11.5975H19.7923C19.7126 11.5975 19.6436 11.6531 19.6268 11.731L17.9074 19.665C17.8835 19.7753 17.756 19.8269 17.662 19.7643C17.6248 19.7395 17.5997 19.7002 17.5927 19.6561L16.3404 11.7404C16.3273 11.6581 16.2564 11.5975 16.1731 11.5975H14.4488C14.3406 11.5975 14.2602 11.6975 14.2834 11.8032L16.7389 22.979C16.756 23.0567 16.8248 23.112 16.9043 23.112H18.5185C18.5985 23.112 18.6675 23.0561 18.6841 22.9779L20.2838 15.4524ZM24.2159 8.33784H24.0949C24.0493 8.33792 24.0086 8.30951 23.9929 8.26673C23.9795 8.23151 23.9651 8.19706 23.9496 8.16294C23.9303 8.12144 23.9391 8.07231 23.9716 8.0401L24.0579 7.9537C24.186 7.82447 24.1857 7.61605 24.0573 7.48712L23.7463 7.17607C23.6172 7.04773 23.4087 7.04773 23.2796 7.17607L23.1933 7.26225C23.161 7.29463 23.112 7.30342 23.0705 7.28427C23.0363 7.26875 23.0019 7.25433 22.9666 7.24024C22.9236 7.22471 22.895 7.18382 22.8951 7.1381V7.01702C22.8951 6.83466 22.7473 6.68682 22.5649 6.68682H22.1247C21.9423 6.68682 21.7944 6.83466 21.7944 7.01702V7.1381C21.7945 7.18364 21.7661 7.22438 21.7233 7.24002C21.6881 7.25345 21.6537 7.26787 21.6196 7.28339C21.578 7.30258 21.529 7.29379 21.4967 7.26137L21.4103 7.17508C21.2812 7.04682 21.0728 7.04682 20.9437 7.17508L20.6327 7.48712C20.5043 7.61622 20.5043 7.82471 20.6327 7.95381L20.7189 8.0401C20.7514 8.07231 20.7602 8.12144 20.7409 8.16294C20.7254 8.19706 20.7109 8.23151 20.6974 8.26684C20.6817 8.30986 20.6405 8.3383 20.5947 8.33784H20.4736C20.2913 8.33784 20.1434 8.48567 20.1434 8.66804V9.10831C20.1434 9.29068 20.2913 9.43851 20.4736 9.43851H20.5947C20.6403 9.43843 20.681 9.46684 20.6966 9.50961C20.7101 9.54484 20.7245 9.57929 20.74 9.61341C20.7593 9.6549 20.7505 9.70404 20.718 9.73624L20.6317 9.82265C20.5034 9.95173 20.5034 10.1601 20.6317 10.2892L20.9427 10.6003C21.0718 10.7286 21.2803 10.7286 21.4094 10.6003L21.4957 10.5141C21.528 10.4817 21.5771 10.4729 21.6186 10.4921C21.6527 10.5076 21.6871 10.522 21.7225 10.5361C21.7657 10.5515 21.7945 10.5924 21.7944 10.6382V10.7593C21.7944 10.9417 21.9423 11.0895 22.1247 11.0895H22.5649C22.7473 11.0895 22.8951 10.9417 22.8951 10.7593V10.6382C22.895 10.5927 22.9235 10.552 22.9662 10.5363C23.0014 10.5229 23.0359 10.5085 23.07 10.493C23.1115 10.4738 23.1606 10.4826 23.1929 10.515L23.2793 10.6013C23.4085 10.7293 23.6169 10.7291 23.7458 10.6007L24.0569 10.2897C24.1852 10.1606 24.1852 9.95207 24.0569 9.82298L23.9707 9.73668C23.9382 9.70448 23.9294 9.65534 23.9487 9.61385C23.9642 9.57973 23.9786 9.54528 23.9927 9.50994C24.0083 9.46695 24.0491 9.43835 24.0949 9.43851H24.2159C24.3983 9.43851 24.5461 9.29068 24.5461 9.10831V8.66804C24.5461 8.48567 24.3983 8.33784 24.2159 8.33784ZM24.326 9.10831C24.326 9.16909 24.2767 9.21838 24.2159 9.21838H24.0949C23.958 9.21889 23.8356 9.30346 23.7867 9.43125C23.775 9.46207 23.7624 9.4924 23.7488 9.52227C23.6922 9.6472 23.7185 9.79408 23.8148 9.89166L23.9009 9.97784C23.9439 10.0208 23.944 10.0905 23.901 10.1335L23.9009 10.1336L23.5899 10.4446C23.5469 10.4876 23.4772 10.4876 23.4342 10.4446L23.3479 10.3585C23.2504 10.262 23.1035 10.2357 22.9786 10.2924C22.9487 10.306 22.9183 10.3186 22.8878 10.3303C22.7601 10.3792 22.6755 10.5015 22.675 10.6382V10.7593C22.675 10.8201 22.6257 10.8694 22.5649 10.8694H22.1247C22.0639 10.8694 22.0146 10.8201 22.0146 10.7593V10.6382C22.0141 10.5014 21.9295 10.379 21.8017 10.3301C21.7709 10.3184 21.7406 10.3058 21.7107 10.2922C21.5858 10.2356 21.4389 10.2619 21.3413 10.3582L21.2551 10.4443C21.2122 10.4873 21.1425 10.4874 21.0995 10.4444L21.0994 10.4443L20.7883 10.1336C20.7454 10.0906 20.7454 10.0209 20.7883 9.97795L20.8745 9.89166C20.9709 9.79408 20.9971 9.6472 20.9405 9.52227C20.927 9.49244 20.9143 9.46207 20.9027 9.43147C20.8539 9.30364 20.7315 9.21898 20.5947 9.21838H20.4736C20.4129 9.21838 20.3636 9.16909 20.3636 9.10831V8.66804C20.3636 8.60725 20.4129 8.55797 20.4736 8.55797H20.5947C20.7315 8.55746 20.854 8.47289 20.9029 8.3451C20.9146 8.31428 20.9272 8.28394 20.9408 8.25407C20.9974 8.12915 20.9711 7.98226 20.8747 7.88469L20.7882 7.7985C20.7452 7.75555 20.7452 7.68585 20.7881 7.64284L20.7882 7.64276L21.0993 7.33171C21.1422 7.28874 21.2119 7.28874 21.2549 7.33171L21.3412 7.41789C21.4387 7.51435 21.5857 7.54062 21.7106 7.48393C21.7404 7.47039 21.7708 7.45774 21.8014 7.44607C21.9293 7.39732 22.014 7.27494 22.0146 7.1381V7.01702C22.0146 6.95624 22.0639 6.90696 22.1247 6.90696H22.5649C22.6257 6.90696 22.675 6.95624 22.675 7.01702V7.1381C22.6755 7.27493 22.7601 7.39738 22.8879 7.44629C22.9187 7.45795 22.949 7.47057 22.9789 7.48415C23.1038 7.54084 23.2507 7.51457 23.3483 7.41811L23.4345 7.33204C23.4776 7.28936 23.5471 7.28936 23.5902 7.33204L23.9013 7.64309C23.9442 7.68607 23.9442 7.75574 23.9013 7.79872L23.8151 7.88502C23.7187 7.98259 23.6924 8.12948 23.749 8.2544C23.7626 8.28423 23.7752 8.31461 23.7869 8.34521C23.8358 8.4729 23.9581 8.55742 24.0949 8.55797H24.2159C24.2767 8.55797 24.326 8.60725 24.326 8.66804V9.10831ZM23.327 8.76518C23.3302 8.79138 23.3321 8.81768 23.3332 8.8441L23.3341 8.85958C23.3347 8.86919 23.3353 8.87878 23.3353 8.8889C23.3353 8.89517 23.3344 8.90111 23.3344 8.90739C23.3339 8.9272 23.3328 8.94701 23.3313 8.96694C23.3297 8.98862 23.3269 9.00986 23.3238 9.0311C23.3004 9.19173 23.244 9.34576 23.1581 9.48348C23.1417 9.51009 23.1219 9.53439 23.0991 9.55569C23.0146 9.63591 22.9197 9.70443 22.817 9.75942H22.8163C22.7988 9.76898 22.7811 9.7771 22.7632 9.78527L22.7613 9.78617L22.7502 9.7914C22.74 9.7963 22.7299 9.80116 22.7183 9.80554C22.7027 9.81148 22.6871 9.81721 22.672 9.82249L22.6658 9.82467C22.6528 9.82924 22.6398 9.8338 22.6265 9.83779C22.6067 9.84362 22.5875 9.84836 22.5681 9.85287L22.5578 9.85531C22.5508 9.85702 22.5437 9.85873 22.5363 9.86013C22.5087 9.86564 22.4816 9.8696 22.4548 9.87257L22.4504 9.87324C22.4481 9.87363 22.446 9.874 22.4438 9.874C22.4106 9.8773 22.378 9.8794 22.3466 9.8794C22.3358 9.8794 22.3257 9.87847 22.3156 9.87754C22.309 9.87693 22.3025 9.87633 22.2957 9.87598L22.282 9.87537C22.2608 9.87446 22.2397 9.87355 22.2186 9.87092C22.1798 9.86575 22.1413 9.85839 22.1033 9.84891C22.1014 9.84847 22.0995 9.84792 22.0978 9.84792C21.7485 9.75795 21.4756 9.48531 21.3854 9.13607C21.2484 8.60608 21.567 8.0654 22.097 7.92845C22.1322 7.9199 22.1678 7.91324 22.2037 7.90852C22.2161 7.90676 22.2286 7.90533 22.2411 7.90401C22.2648 7.90159 22.2883 7.90027 22.3118 7.89961L22.3181 7.89924L22.3257 7.89862C22.3321 7.89807 22.3384 7.89752 22.3448 7.89752C22.5576 7.89741 22.7646 7.96631 22.935 8.09388L22.953 8.10731C22.9669 8.11816 22.9805 8.12939 22.9938 8.14099C23.0048 8.15067 23.0159 8.1608 23.0269 8.17104C23.0359 8.17962 23.0449 8.18799 23.0535 8.1969C23.0699 8.21352 23.0855 8.23091 23.1007 8.24885L23.1067 8.25558L23.1108 8.26041C23.1481 8.30544 23.1813 8.35375 23.2099 8.40471L23.2118 8.40862L23.2136 8.41252C23.2318 8.44589 23.248 8.4803 23.2622 8.51555C23.2679 8.53063 23.2735 8.54582 23.2789 8.56112C23.2866 8.58313 23.2936 8.60547 23.2997 8.62815L23.3021 8.63697C23.3062 8.65183 23.3103 8.66666 23.3135 8.68164C23.3193 8.70905 23.3235 8.737 23.327 8.76518ZM23.1129 8.93763C23.1133 8.93052 23.1138 8.92336 23.1138 8.91619C23.1148 8.89066 23.1144 8.86523 23.1128 8.83992L23.1123 8.82889L23.1119 8.8206L23.1116 8.8157C23.1087 8.78541 23.1041 8.7553 23.0976 8.72556C23.0953 8.71488 23.0922 8.70508 23.0895 8.69408C23.0841 8.67338 23.0779 8.65291 23.0708 8.63266C23.0668 8.62165 23.0631 8.61065 23.0587 8.59964C23.0476 8.57203 23.035 8.54509 23.0208 8.51896L23.0042 8.49155C22.9943 8.47482 22.9833 8.45831 22.9723 8.44246C22.9646 8.43179 22.9567 8.42122 22.9486 8.41098C22.9368 8.39612 22.9245 8.38204 22.9118 8.36828L22.9033 8.35871C22.8987 8.3535 22.8941 8.3483 22.8893 8.3434C22.8696 8.32399 22.8489 8.30562 22.8273 8.28837C22.8187 8.28143 22.8097 8.27505 22.8008 8.26856C22.7842 8.25601 22.7673 8.245 22.7499 8.23399C22.7416 8.22882 22.7333 8.22365 22.7248 8.2187C22.6719 8.18865 22.6155 8.16493 22.557 8.14803L22.543 8.14439L22.5343 8.1422C22.5111 8.13625 22.4875 8.13152 22.4638 8.12778L22.4546 8.12635L22.4451 8.12486L22.4389 8.12404C22.4077 8.11996 22.3762 8.11783 22.3448 8.11765C22.2796 8.11778 22.2146 8.12592 22.1514 8.14187V8.14198C21.8791 8.21197 21.6665 8.42476 21.5968 8.69715C21.4913 9.10938 21.7399 9.52909 22.1522 9.63461C22.1818 9.64194 22.2118 9.64759 22.2421 9.65156L22.2553 9.6531C22.2812 9.65603 22.3072 9.65764 22.3332 9.65794H22.3562C22.3744 9.65761 22.3922 9.65673 22.4099 9.65519C22.4234 9.65398 22.4369 9.65233 22.4507 9.65034L22.4611 9.64873L22.4654 9.64803C22.5347 9.63674 22.6022 9.61631 22.6662 9.58728L22.6753 9.58287C22.6887 9.57671 22.7022 9.57 22.7158 9.56284C22.9194 9.45048 23.0614 9.25235 23.1026 9.02351C23.1071 8.99676 23.1105 8.97013 23.1125 8.94349L23.1129 8.93763ZM22.853 8.88804C22.853 9.16859 22.6256 9.39603 22.345 9.39603C22.0644 9.39603 21.837 9.16859 21.837 8.88804C21.837 8.60748 22.0644 8.38004 22.345 8.38004C22.6256 8.38004 22.853 8.60748 22.853 8.88804ZM26.0711 6.79686H26.4173C26.5997 6.79686 26.7475 6.9447 26.7475 7.12706V7.78747C26.7475 7.96984 26.5997 8.11767 26.4173 8.11767H26.0711C26.0249 8.11726 25.9835 8.14654 25.9686 8.19032C25.9342 8.29262 25.8927 8.39237 25.8443 8.48882C25.824 8.53047 25.8325 8.58045 25.8655 8.61298L26.1107 8.85854C26.2396 8.98748 26.2396 9.1965 26.1107 9.32544L25.6435 9.79246C25.5146 9.9213 25.3057 9.9213 25.1767 9.79246L24.8152 9.43155L24.8125 9.42885C24.7702 9.3852 24.7713 9.31551 24.8149 9.27322C24.8586 9.23092 24.9283 9.23202 24.9706 9.27569L25.3323 9.63661C25.3752 9.6795 25.4448 9.6795 25.4878 9.63661L25.9551 9.16948C25.9981 9.1265 25.9981 9.05682 25.9551 9.01384L25.7097 8.76795C25.6098 8.66844 25.5847 8.51614 25.6475 8.38987C25.6912 8.30265 25.7287 8.21247 25.7598 8.11998C25.8049 7.98657 25.9303 7.89697 26.0711 7.89754H26.4173C26.4781 7.89754 26.5274 7.84825 26.5274 7.78747V7.12706C26.5274 7.06628 26.4781 7.017 26.4173 7.017H26.0711C25.9303 7.0176 25.8048 6.92801 25.7597 6.79455C25.7286 6.70211 25.6912 6.61196 25.6475 6.52477C25.5846 6.3985 25.6096 6.24612 25.7096 6.14658L25.955 5.90069C25.9979 5.85772 25.9979 5.78813 25.955 5.74517L25.4879 5.27793C25.4449 5.23496 25.3752 5.23496 25.3323 5.27793L25.0864 5.52327C24.9868 5.6231 24.8346 5.64814 24.7083 5.58546C24.6211 5.54173 24.5309 5.50423 24.4384 5.47319C24.305 5.42806 24.2154 5.30265 24.216 5.16181V4.81564C24.216 4.75486 24.1667 4.70558 24.1059 4.70558H23.4455C23.3847 4.70558 23.3354 4.75486 23.3354 4.81564V5.16181C23.336 5.30268 23.2464 5.42813 23.113 5.4733C23.0205 5.50432 22.9304 5.5418 22.8432 5.58546C22.7169 5.64847 22.5645 5.62346 22.465 5.52338L22.2191 5.27793C22.1761 5.23496 22.1065 5.23496 22.0635 5.27793L21.5964 5.74506C21.5534 5.78804 21.5534 5.85771 21.5964 5.90069L21.9575 6.26215C21.9986 6.30486 21.9985 6.3725 21.9573 6.41509C21.915 6.45876 21.8453 6.45986 21.8016 6.41757L21.4407 6.056C21.3118 5.92705 21.3118 5.71803 21.4407 5.58909L21.9078 5.12196C22.0369 4.9935 22.2456 4.9935 22.3746 5.12196L22.6204 5.36741C22.6529 5.40054 22.703 5.40906 22.7447 5.38855C22.8411 5.3402 22.9408 5.2987 23.0431 5.26439C23.0867 5.24926 23.1158 5.20797 23.1153 5.16181V4.81564C23.1153 4.63328 23.2631 4.48544 23.4455 4.48544H24.1059C24.2883 4.48544 24.4361 4.63328 24.4361 4.81564V5.16181C24.4357 5.20808 24.465 5.24941 24.5087 5.26439C24.611 5.29872 24.7108 5.34024 24.8072 5.38866C24.8489 5.40902 24.8989 5.40046 24.9314 5.36741L25.1767 5.12218C25.3057 4.99335 25.5146 4.99335 25.6435 5.12218L26.1115 5.58942C26.2404 5.71835 26.2404 5.92729 26.1115 6.05622L25.8661 6.302C25.833 6.33455 25.8245 6.38462 25.845 6.42626C25.8931 6.5227 25.9344 6.62242 25.9686 6.72466C25.9837 6.76826 26.025 6.79733 26.0711 6.79686ZM24.7874 6.44557C24.2283 5.88762 23.323 5.88762 22.7639 6.44557C22.7217 6.48929 22.7229 6.55898 22.7666 6.60121C22.8093 6.6424 22.8769 6.6424 22.9195 6.60121C23.3892 6.12522 24.1558 6.12009 24.6317 6.58973C25.1077 7.05938 25.1129 7.82596 24.6432 8.30194L24.6317 8.31342C24.588 8.35566 24.5868 8.42533 24.629 8.46905C24.6713 8.51278 24.741 8.51399 24.7847 8.47175L24.7874 8.46905C25.3453 7.90994 25.3453 7.00469 24.7874 6.44557ZM4.74769 19.8328C4.55558 19.8328 4.40046 19.9931 4.4236 20.1838C4.66843 22.2008 6.34425 23.4507 8.85609 23.4507C11.6495 23.4507 13.3704 21.9804 13.3704 19.5767C13.3704 17.7265 12.4058 16.6939 10.1679 16.1901L8.82523 15.8845C7.52111 15.5871 6.98865 15.1658 6.98865 14.4307C6.98865 13.5221 7.76032 12.9439 8.92554 12.9439C9.92962 12.9439 10.6885 13.4425 10.9182 14.2175C10.9671 14.3825 11.1081 14.5133 11.2802 14.5133H12.8198C13.0112 14.5133 13.1661 14.3542 13.1427 14.1643C12.9043 12.231 11.2271 10.9202 8.91011 10.9202C6.34045 10.9202 4.65049 12.3987 4.65049 14.6455C4.65049 16.4627 5.64595 17.5943 7.67544 18.0486L9.12618 18.379C10.492 18.6929 11.0476 19.1307 11.0476 19.8906C11.0476 20.7909 10.1911 21.4187 8.97956 21.4187C7.80728 21.4187 6.95544 20.924 6.71036 20.1291C6.65955 19.9643 6.51868 19.8328 6.34621 19.8328H4.74769Z" fill="url(#paint0_linear_447_31127)"/>
<g filter="url(#filter0_d_447_31127)">
<path d="M188.17 11.9092H190.936L193.857 19.7274H193.982L196.903 11.9092H199.669V23.5455H197.493V15.9717H197.405L194.66 23.4887H193.179L190.434 15.9433H190.346V23.5455H188.17V11.9092Z" fill="url(#paint1_linear_447_31127)"/>
<path d="M179.088 23.5456H176.685L180.347 11.9092H183.237L186.894 23.5456H184.49L181.833 14.5683H181.75L179.088 23.5456ZM178.938 18.9717H184.615V20.8922H178.938V18.9717ZM182.817 8.86377H184.356C184.352 9.55316 184.119 10.1081 183.656 10.5285C183.197 10.949 182.576 11.1592 181.792 11.1592C181.005 11.1592 180.381 10.949 179.922 10.5285C179.463 10.1081 179.233 9.55316 179.233 8.86377H180.761C180.758 9.12513 180.834 9.35998 180.989 9.56832C181.148 9.77665 181.416 9.88082 181.792 9.88082C182.158 9.88082 182.42 9.77854 182.579 9.574C182.738 9.36945 182.817 9.13271 182.817 8.86377Z" fill="url(#paint2_linear_447_31127)"/>
<path d="M167.617 23.5455V11.9092H171.864C172.645 11.9092 173.295 12.0361 173.817 12.2899C174.338 12.5436 174.73 12.8959 174.993 13.3467C175.255 13.7936 175.386 14.3088 175.386 14.8921C175.386 15.3467 175.303 15.7463 175.138 16.091C174.972 16.4319 174.744 16.7122 174.454 16.9319C174.167 17.1478 173.839 17.3012 173.47 17.3921V17.5058C173.874 17.5247 174.252 17.6497 174.604 17.8808C174.96 18.1118 175.248 18.4357 175.469 18.8524C175.69 19.2652 175.801 19.7577 175.801 20.3296C175.801 20.9471 175.661 21.4982 175.381 21.983C175.105 22.4641 174.696 22.8448 174.154 23.1251C173.611 23.4054 172.943 23.5455 172.149 23.5455H167.617ZM169.86 21.5342H171.688C172.313 21.5342 172.769 21.4035 173.056 21.1421C173.342 20.877 173.485 20.5247 173.485 20.0853C173.485 19.7633 173.415 19.4793 173.273 19.233C173.131 18.9868 172.929 18.7936 172.667 18.6535C172.408 18.5133 172.099 18.4433 171.74 18.4433H169.86V21.5342ZM169.86 16.7785H171.522C171.83 16.7785 172.102 16.7198 172.341 16.6024C172.582 16.4811 172.772 16.3107 172.91 16.091C173.052 15.8713 173.123 15.608 173.123 15.3012C173.123 14.8808 172.986 14.5418 172.714 14.2842C172.444 14.0266 172.061 13.8978 171.564 13.8978H169.86V16.7785Z" fill="url(#paint3_linear_447_31127)"/>
<path d="M160.18 15.6705C160.107 15.3939 160.005 15.1496 159.874 14.9375C159.743 14.7216 159.582 14.5398 159.392 14.392C159.206 14.2405 158.992 14.125 158.75 14.0455C158.512 13.9659 158.248 13.9261 157.958 13.9261C157.415 13.9261 156.939 14.0739 156.528 14.3693C156.121 14.6648 155.803 15.0947 155.575 15.6591C155.347 16.2197 155.233 16.9053 155.233 17.7159C155.233 18.5265 155.345 19.2159 155.57 19.7841C155.794 20.3523 156.112 20.786 156.523 21.0852C156.934 21.3807 157.419 21.5284 157.978 21.5284C158.486 21.5284 158.919 21.4299 159.278 21.233C159.641 21.0322 159.917 20.75 160.107 20.3864C160.3 20.0227 160.397 19.5928 160.397 19.0966L160.853 19.1705H158.118V17.3182H162.557V18.7841C162.557 19.8068 162.36 20.6856 161.966 21.4205C161.573 22.1515 161.031 22.7159 160.34 23.1136C159.649 23.5076 158.859 23.7045 157.968 23.7045C156.973 23.7045 156.1 23.464 155.347 22.983C154.594 22.4981 154.007 21.8106 153.586 20.9205C153.168 20.0265 152.959 18.9659 152.959 17.7386C152.959 16.7955 153.084 15.9545 153.332 15.2159C153.584 14.4735 153.937 13.8447 154.389 13.3295C154.841 12.8144 155.368 12.4223 155.969 12.1534C156.569 11.8845 157.22 11.75 157.921 11.75C158.522 11.75 159.081 11.8466 159.599 12.0398C160.117 12.2292 160.577 12.4981 160.977 12.8466C161.381 13.1951 161.711 13.6098 161.966 14.0909C162.222 14.5682 162.386 15.0947 162.458 15.6705H160.18Z" fill="url(#paint4_linear_447_31127)"/>
<path d="M151.293 11.9092V23.5455H149.356L144.741 16.2217H144.664V23.5455H142.421V11.9092H144.389L148.968 19.2274H149.061V11.9092H151.293Z" fill="url(#paint5_linear_447_31127)"/>
<path d="M139.895 11.3409H141.314C141.314 12.447 141.095 13.3049 140.656 13.9148C140.218 14.5246 139.524 14.8295 138.574 14.8295V13.5795C139.078 13.5795 139.424 13.3826 139.61 12.9886C139.8 12.5947 139.895 12.0455 139.895 11.3409ZM140.304 17.7273C140.304 18.9962 140.085 20.0758 139.646 20.9659C139.211 21.8561 138.617 22.536 137.865 23.0057C137.115 23.4716 136.273 23.7045 135.337 23.7045C134.394 23.7045 133.549 23.4697 132.799 23C132.05 22.5303 131.458 21.8504 131.023 20.9602C130.588 20.0701 130.37 18.9924 130.37 17.7273C130.37 16.4583 130.588 15.3788 131.023 14.4886C131.458 13.5985 132.05 12.9205 132.799 12.4545C133.549 11.9848 134.394 11.75 135.337 11.75C136.273 11.75 137.115 11.9848 137.865 12.4545C138.617 12.9205 139.211 13.5985 139.646 14.4886C140.085 15.3788 140.304 16.4583 140.304 17.7273ZM138.03 17.7273C138.03 16.9053 137.918 16.2121 137.694 15.6477C137.473 15.0833 137.16 14.6553 136.756 14.3636C136.352 14.072 135.879 13.9261 135.337 13.9261C134.795 13.9261 134.322 14.072 133.918 14.3636C133.514 14.6553 133.2 15.0833 132.975 15.6477C132.754 16.2121 132.644 16.9053 132.644 17.7273C132.644 18.5492 132.754 19.2424 132.975 19.8068C133.2 20.3712 133.514 20.7992 133.918 21.0909C134.322 21.3826 134.795 21.5284 135.337 21.5284C135.879 21.5284 136.352 21.3826 136.756 21.0909C137.16 20.7992 137.473 20.3712 137.694 19.8068C137.918 19.2424 138.03 18.5492 138.03 17.7273ZM136.15 10.6591H134.514L134.4 9.63636C134.766 9.61743 135.026 9.5644 135.182 9.47727C135.337 9.38636 135.413 9.26705 135.41 9.11932C135.413 8.91477 135.315 8.77652 135.114 8.70455C134.918 8.63258 134.671 8.59659 134.374 8.59659L134.431 7.5C135.353 7.5 136.054 7.63636 136.534 7.90909C137.017 8.18182 137.257 8.56061 137.253 9.04546C137.257 9.39015 137.143 9.65152 136.912 9.82955C136.684 10.0038 136.43 10.1136 136.15 10.1591V10.6591Z" fill="url(#paint6_linear_447_31127)"/>
<path d="M128.175 11.4888H129.6C129.6 12.2653 129.505 12.9282 129.315 13.4774C129.128 14.0266 128.805 14.4471 128.346 14.7388C127.89 15.0266 127.257 15.1706 126.445 15.1706V13.8979C126.974 13.8979 127.36 13.8013 127.606 13.6081C127.851 13.4149 128.006 13.1384 128.072 12.7785C128.141 12.4187 128.175 11.9888 128.175 11.4888ZM124.902 11.9092H127.145V19.466C127.145 20.3145 126.96 21.057 126.59 21.6933C126.224 22.3297 125.712 22.8259 125.052 23.182C124.393 23.5342 123.624 23.7104 122.747 23.7104C121.867 23.7104 121.097 23.5342 120.437 23.182C119.778 22.8259 119.265 22.3297 118.899 21.6933C118.533 21.057 118.35 20.3145 118.35 19.466V11.9092H120.593V19.2558C120.593 19.699 120.681 20.0929 120.857 20.4376C121.036 20.7823 121.289 21.0532 121.613 21.2501C121.938 21.4471 122.316 21.5456 122.747 21.5456C123.182 21.5456 123.561 21.4471 123.882 21.2501C124.206 21.0532 124.457 20.7823 124.633 20.4376C124.812 20.0929 124.902 19.699 124.902 19.2558V11.9092Z" fill="url(#paint7_linear_447_31127)"/>
<path d="M110.027 11.9092L112.166 15.8751H112.249L114.398 11.9092H116.931L113.694 17.7274L117.003 23.5455H114.424L112.249 19.574H112.166L109.99 23.5455H107.421L110.741 17.7274L107.484 11.9092H110.027Z" fill="url(#paint8_linear_447_31127)"/>
<path d="M93.3584 11.909H95.8704L98.2891 16.9203H98.3927L100.811 11.909H103.323L99.4545 19.4317V23.5453H97.2274V19.4317L93.3584 11.909ZM97.5485 10.784L98.6465 8.19873H100.687L99.1075 10.784H97.5485Z" fill="url(#paint9_linear_447_31127)"/>
<path d="M87.0576 23.5455V11.9092H89.3003V21.5171H93.8478V23.5455H87.0576Z" fill="url(#paint10_linear_447_31127)"/>
<path d="M81.8288 11.9092V23.5455H79.8917L75.2769 16.2217H75.1992V23.5455H72.9565V11.9092H74.9247L79.5032 19.2274H79.5965V11.9092H81.8288Z" fill="url(#paint11_linear_447_31127)"/>
<path d="M63.8749 23.5455H61.4717L65.1335 11.9091H68.0236L71.6802 23.5455H69.277L66.62 14.5682H66.5371L63.8749 23.5455ZM63.7247 18.9716H69.4013V20.892H63.7247V18.9716ZM67.3917 10.6591H65.755L65.6411 9.63636C66.0071 9.61743 66.2678 9.5644 66.4231 9.47727C66.5785 9.38636 66.6545 9.26705 66.651 9.11932C66.6545 8.91477 66.5561 8.77652 66.3558 8.70455C66.159 8.63258 65.9121 8.59659 65.6152 8.59659L65.6721 7.5C66.5941 7.5 67.295 7.63636 67.775 7.90909C68.2584 8.18182 68.4983 8.56061 68.4949 9.04546C68.4983 9.39015 68.3844 9.65152 68.153 9.82955C67.9252 10.0038 67.6714 10.1136 67.3917 10.1591V10.6591Z" fill="url(#paint12_linear_447_31127)"/>
<path d="M57.9586 11.9092H60.2013V19.466C60.2013 20.3145 60.0166 21.0569 59.6471 21.6933C59.2811 22.3296 58.7683 22.8258 58.1088 23.1819C57.4493 23.5342 56.681 23.7103 55.804 23.7103C54.9235 23.7103 54.1535 23.5342 53.494 23.1819C52.8345 22.8258 52.3218 22.3296 51.9557 21.6933C51.5897 21.0569 51.4067 20.3145 51.4067 19.466V11.9092H53.6494V19.2558C53.6494 19.699 53.7374 20.0929 53.9135 20.4376C54.0931 20.7823 54.3452 21.0531 54.6697 21.2501C54.9943 21.4471 55.3724 21.5455 55.804 21.5455C56.2391 21.5455 56.6172 21.4471 56.9383 21.2501C57.2629 21.0531 57.5132 20.7823 57.6893 20.4376C57.8688 20.0929 57.9586 19.699 57.9586 19.2558V11.9092Z" fill="url(#paint13_linear_447_31127)"/>
<path d="M44.0016 19.5H45.9076L46.8658 20.8523L47.8084 22.0568L49.585 24.5H47.4925L46.2702 22.8523L45.6435 21.875L44.0016 19.5ZM49.7455 17.7273C49.7455 18.9962 49.5263 20.0758 49.0877 20.9659C48.6527 21.8561 48.0588 22.536 47.306 23.0057C46.5568 23.4716 45.7143 23.7045 44.7785 23.7045C43.8359 23.7045 42.9899 23.4697 42.2406 23C41.4914 22.5303 40.8992 21.8504 40.4641 20.9602C40.0291 20.0701 39.8115 18.9924 39.8115 17.7273C39.8115 16.4583 40.0291 15.3788 40.4641 14.4886C40.8992 13.5985 41.4914 12.9205 42.2406 12.4545C42.9899 11.9848 43.8359 11.75 44.7785 11.75C45.7143 11.75 46.5568 11.9848 47.306 12.4545C48.0588 12.9205 48.6527 13.5985 49.0877 14.4886C49.5263 15.3788 49.7455 16.4583 49.7455 17.7273ZM47.4718 17.7273C47.4718 16.9053 47.3596 16.2121 47.1351 15.6477C46.9141 15.0833 46.6017 14.6553 46.1977 14.3636C45.7937 14.072 45.3206 13.9261 44.7785 13.9261C44.2364 13.9261 43.7634 14.072 43.3594 14.3636C42.9554 14.6553 42.6412 15.0833 42.4167 15.6477C42.1958 16.2121 42.0853 16.9053 42.0853 17.7273C42.0853 18.5492 42.1958 19.2424 42.4167 19.8068C42.6412 20.3712 42.9554 20.7992 43.3594 21.0909C43.7634 21.3826 44.2364 21.5284 44.7785 21.5284C45.3206 21.5284 45.7937 21.3826 46.1977 21.0909C46.6017 20.7992 46.9141 20.3712 47.1351 19.8068C47.3596 19.2424 47.4718 18.5492 47.4718 17.7273Z" fill="url(#paint14_linear_447_31127)"/>
</g>
<defs>
<filter id="filter0_d_447_31127" x="39.4937" y="7.5" width="160.493" height="17.9536" filterUnits="userSpaceOnUse" color-interpolation-filters="sRGB">
<feFlood flood-opacity="0" result="BackgroundImageFix"/>
<feColorMatrix in="SourceAlpha" type="matrix" values="0 0 0 0 0 0 0 0 0 0 0 0 0 0 0 0 0 0 127 0" result="hardAlpha"/>
<feOffset dy="0.635715"/>
<feGaussianBlur stdDeviation="0.158929"/>
<feComposite in2="hardAlpha" operator="out"/>
<feColorMatrix type="matrix" values="0 0 0 0 0 0 0 0 0 0 0 0 0 0 0 0 0 0 0.25 0"/>
<feBlend mode="normal" in2="BackgroundImageFix" result="effect1_dropShadow_447_31127"/>
<feBlend mode="normal" in="SourceGraphic" in2="effect1_dropShadow_447_31127" result="shape"/>
</filter>
<linearGradient id="paint0_linear_447_31127" x1="15.5718" y1="0.760254" x2="15.6204" y2="39.6186" gradientUnits="userSpaceOnUse">
<stop offset="0.122606" stop-color="#5786F5"/>
<stop offset="1" stop-color="#3169F0"/>
</linearGradient>
<linearGradient id="paint1_linear_447_31127" x1="120.206" y1="5.54553" x2="120.211" y2="36.1432" gradientUnits="userSpaceOnUse">
<stop offset="0.122606" stop-color="#5786F5"/>
<stop offset="1" stop-color="#3169F0"/>
</linearGradient>
<linearGradient id="paint2_linear_447_31127" x1="120.206" y1="5.54559" x2="120.211" y2="36.1433" gradientUnits="userSpaceOnUse">
<stop offset="0.122606" stop-color="#5786F5"/>
<stop offset="1" stop-color="#3169F0"/>
</linearGradient>
<linearGradient id="paint3_linear_447_31127" x1="120.205" y1="5.54553" x2="120.211" y2="36.1432" gradientUnits="userSpaceOnUse">
<stop offset="0.122606" stop-color="#5786F5"/>
<stop offset="1" stop-color="#3169F0"/>
</linearGradient>
<linearGradient id="paint4_linear_447_31127" x1="120.205" y1="5.54547" x2="120.211" y2="36.1432" gradientUnits="userSpaceOnUse">
<stop offset="0.122606" stop-color="#5786F5"/>
<stop offset="1" stop-color="#3169F0"/>
</linearGradient>
<linearGradient id="paint5_linear_447_31127" x1="120.205" y1="5.54553" x2="120.211" y2="36.1432" gradientUnits="userSpaceOnUse">
<stop offset="0.122606" stop-color="#5786F5"/>
<stop offset="1" stop-color="#3169F0"/>
</linearGradient>
<linearGradient id="paint6_linear_447_31127" x1="120.206" y1="5.54547" x2="120.211" y2="36.1432" gradientUnits="userSpaceOnUse">
<stop offset="0.122606" stop-color="#5786F5"/>
<stop offset="1" stop-color="#3169F0"/>
</linearGradient>
<linearGradient id="paint7_linear_447_31127" x1="120.206" y1="5.54559" x2="120.211" y2="36.1433" gradientUnits="userSpaceOnUse">
<stop offset="0.122606" stop-color="#5786F5"/>
<stop offset="1" stop-color="#3169F0"/>
</linearGradient>
<linearGradient id="paint8_linear_447_31127" x1="120.205" y1="5.54553" x2="120.211" y2="36.1432" gradientUnits="userSpaceOnUse">
<stop offset="0.122606" stop-color="#5786F5"/>
<stop offset="1" stop-color="#3169F0"/>
</linearGradient>
<linearGradient id="paint9_linear_447_31127" x1="120.206" y1="5.54535" x2="120.211" y2="36.1431" gradientUnits="userSpaceOnUse">
<stop offset="0.122606" stop-color="#5786F5"/>
<stop offset="1" stop-color="#3169F0"/>
</linearGradient>
<linearGradient id="paint10_linear_447_31127" x1="120.205" y1="5.54553" x2="120.211" y2="36.1432" gradientUnits="userSpaceOnUse">
<stop offset="0.122606" stop-color="#5786F5"/>
<stop offset="1" stop-color="#3169F0"/>
</linearGradient>
<linearGradient id="paint11_linear_447_31127" x1="120.205" y1="5.54553" x2="120.211" y2="36.1432" gradientUnits="userSpaceOnUse">
<stop offset="0.122606" stop-color="#5786F5"/>
<stop offset="1" stop-color="#3169F0"/>
</linearGradient>
<linearGradient id="paint12_linear_447_31127" x1="120.206" y1="5.54547" x2="120.211" y2="36.1432" gradientUnits="userSpaceOnUse">
<stop offset="0.122606" stop-color="#5786F5"/>
<stop offset="1" stop-color="#3169F0"/>
</linearGradient>
<linearGradient id="paint13_linear_447_31127" x1="120.205" y1="5.54553" x2="120.211" y2="36.1432" gradientUnits="userSpaceOnUse">
<stop offset="0.122606" stop-color="#5786F5"/>
<stop offset="1" stop-color="#3169F0"/>
</linearGradient>
<linearGradient id="paint14_linear_447_31127" x1="120.205" y1="5.54547" x2="120.211" y2="36.1432" gradientUnits="userSpaceOnUse">
<stop offset="0.122606" stop-color="#5786F5"/>
<stop offset="1" stop-color="#3169F0"/>
</linearGradient>
</defs>
</svg>
